<?xml version="1.0" encoding="UTF-8" standalone="no"?>
<svg width="24px" height="12px" viewBox="0 0 24 12" version="1.1" xmlns="http://www.w3.org/2000/svg" xmlns:xlink="http://www.w3.org/1999/xlink">
    <!-- Generator: Sketch 3.8.3 (29802) - http://www.bohemiancoding.com/sketch -->
    <title>infinite</title>
    <desc>Created with Sketch.</desc>
    <defs></defs>
    <g id="Page-1" stroke="none" stroke-width="1" fill="none" fill-rule="evenodd">
        <g id="Message" transform="translate(-469.000000, -518.000000)" fill="#9E9E9E">
            <g id="infinite" transform="translate(468.000000, 518.000000)">
                <path d="M19.609,0.609 C22.609,0.609 25,3.047 25,6 C25,8.953 22.609,11.391 19.609,11.391 C18.156,11.391 16.796,10.828 15.765,9.797 L14.499,8.672 L15.999,7.359 L17.171,8.343 C17.874,9.046 18.718,9.374 19.609,9.374 C21.484,9.374 22.984,7.874 22.984,5.999 C22.984,4.124 21.484,2.624 19.609,2.624 C18.718,2.624 17.875,2.952 17.218,3.608 C15.806,4.852 14.383,6.086 12.999,7.358 L10.186,9.842 C9.202,10.826 7.842,11.389 6.389,11.389 C3.389,11.389 0.998,8.951 0.998,5.998 C0.998,3.045 3.389,0.607 6.389,0.607 C7.842,0.607 9.202,1.17 10.233,2.201 L11.499,3.326 L9.952,4.639 L8.827,3.655 C8.124,2.952 7.28,2.624 6.389,2.624 C4.514,2.624 3.014,4.124 3.014,5.999 C3.014,7.874 4.514,9.374 6.389,9.374 C7.28,9.374 8.123,9.046 8.78,8.39 C10.192,7.146 11.615,5.912 12.999,4.64 L15.812,2.156 C16.796,1.172 18.156,0.609 19.609,0.609 L19.609,0.609 Z" id="Shape"></path>
            </g>
        </g>
    </g>
</svg>