<?xml version="1.0" encoding="UTF-8" standalone="no"?>
<svg width="20px" height="20px" viewBox="0 0 20 20" version="1.1" xmlns="http://www.w3.org/2000/svg" xmlns:xlink="http://www.w3.org/1999/xlink">
    <!-- Generator: Sketch 3.8.3 (29802) - http://www.bohemiancoding.com/sketch -->
    <title>spinner</title>
    <desc>Created with Sketch.</desc>
    <defs></defs>
    <g id="Page-1" stroke="none" stroke-width="1" fill="none" fill-rule="evenodd">
        <g id="Message" transform="translate(-214.000000, -445.000000)" fill="#FFFFFF">
            <g id="spinner" transform="translate(214.000000, 445.000000)">
                <path d="M2.92893219,17.0710678 C1.11928813,15.2614237 0,12.7614237 0,10 C0,4.4771525 4.4771525,0 10,0 C15.5228475,0 20,4.4771525 20,10 C20,15.5228475 15.5228475,20 10,20 L10,18 C14.418278,18 18,14.418278 18,10 C18,5.581722 14.418278,2 10,2 C5.581722,2 2,5.581722 2,10 C2,12.209139 2.8954305,14.209139 4.34314575,15.6568542 L2.92893219,17.0710678 Z" id="shape"></path>
            </g>
        </g>
    </g>
</svg>