<?xml version="1.0" encoding="UTF-8" standalone="no"?>
<svg width="17px" height="16px" viewBox="0 0 17 16" version="1.1" xmlns="http://www.w3.org/2000/svg" xmlns:xlink="http://www.w3.org/1999/xlink">
    <!-- Generator: Sketch 3.8.3 (29802) - http://www.bohemiancoding.com/sketch -->
    <title>refresh</title>
    <desc>Created with Sketch.</desc>
    <defs></defs>
    <g id="Page-1" stroke="none" stroke-width="1" fill="none" fill-rule="evenodd">
        <g id="Message" transform="translate(-520.000000, -516.000000)" fill="#9E9E9E">
            <g id="refresh" transform="translate(520.000000, 515.000000)">
                <path d="M13.672,3.328 L16.016,0.984 L16.016,8.015 L8.985,8.015 L12.219,4.781 C11.141,3.703 9.641,3 8,3 C4.672,3 2,5.672 2,9 C2,12.328 4.672,15 8,15 C10.625,15 12.875,13.359 13.672,11.016 L15.735,11.016 C14.844,14.485 11.751,17.016 8.001,17.016 C3.595,17.016 0.032,13.407 0.032,9 C0.032,4.593 3.595,0.984 8.001,0.984 C10.204,0.984 12.22,1.875 13.673,3.328 L13.672,3.328 Z" id="Shape"></path>
            </g>
        </g>
    </g>
</svg>