<?xml version="1.0" encoding="UTF-8" standalone="no"?>
<svg width="20px" height="20px" viewBox="0 0 20 20" version="1.1" xmlns="http://www.w3.org/2000/svg" xmlns:xlink="http://www.w3.org/1999/xlink">
    <!-- Generator: Sketch 3.8.3 (29802) - http://www.bohemiancoding.com/sketch -->
    <title>help</title>
    <desc>Created with Sketch.</desc>
    <defs></defs>
    <g id="Page-1" stroke="none" stroke-width="1" fill="none" fill-rule="evenodd">
        <g id="Message" transform="translate(-564.000000, -510.000000)" fill="#9E9E9E">
            <g id="help" transform="translate(564.000000, 510.000000)">
                <path d="M13.047,9.25 C13.61,8.687 13.985,7.891 13.985,7 C13.985,4.797 12.204,3.016 10.001,3.016 C7.798,3.016 6.017,4.797 6.017,7 L7.986,7 C7.986,5.922 8.924,4.984 10.002,4.984 C11.08,4.984 12.018,5.922 12.018,7 C12.018,7.563 11.784,8.031 11.409,8.406 L10.19,9.672 C9.487,10.422 9.018,11.406 9.018,12.485 L9.018,13.001 L10.987,13.001 C10.987,11.501 11.456,10.938 12.159,10.188 L13.047,9.25 Z M10.984,16.984 L10.984,15.015 L9.015,15.015 L9.015,16.984 L10.984,16.984 L10.984,16.984 Z M10,0.016 C15.531,0.016 19.984,4.469 19.984,10 C19.984,15.531 15.531,19.984 10,19.984 C4.469,19.984 0.016,15.531 0.016,10 C0.016,4.469 4.469,0.016 10,0.016 L10,0.016 Z" id="Shape"></path>
            </g>
        </g>
    </g>
</svg>